<?xml version="1.0" encoding="UTF-8"?>
<svg version="1.1" xmlns="http://www.w3.org/2000/svg" width="500" height="500">
<path d="M0 0 C24.09 0 48.18 0 73 0 C72.938125 10.3125 72.87625 20.625 72.8125 31.25 C72.80246948 36.12894043 72.80246948 36.12894043 72.79223633 41.10644531 C72.76579633 43.68035944 72.73752057 46.25425565 72.70703125 48.828125 C72.7093425 49.49527527 72.71165375 50.16242554 72.71403503 50.84979248 C72.71894834 52.82083803 72.68978709 54.79187752 72.65942383 56.76269531 C72.65276199 57.8730011 72.64610016 58.98330688 72.63923645 60.1272583 C72 63 72 63 69.58378601 65.38983154 C67 67 67 67 65 67 C65 67.66 65 68.32 65 69 C64.34 69 63.68 69 63 69 C62.62875 70.0209375 62.62875 70.0209375 62.25 71.0625 C61 74 61 74 59 77.375 C54.46310519 85.2807085 53.53317172 94.17805271 55.7578125 103.0078125 C57.55925088 108.21354388 59.79939884 112.54201981 63 117 C63 117.66 63 118.32 63 119 C63.66 119 64.32 119 65 119 C65 119.66 65 120.32 65 121 C66.98 121.495 66.98 121.495 69 122 C69 122.66 69 123.32 69 124 C70.485 124.495 70.485 124.495 72 125 C72.23309664 129.20739429 72.37467326 133.41312638 72.5 137.625 C72.56703125 138.81480469 72.6340625 140.00460938 72.703125 141.23046875 C72.8974398 149.92605612 72.8974398 149.92605612 70.26708984 153.07373047 C68.1171875 154.65625 68.1171875 154.65625 65.96435547 155.87695312 C63.30474542 157.39748584 61.83913657 159.59497525 60 162 C59.34 162 58.68 162 58 162 C57.731875 162.804375 57.46375 163.60875 57.1875 164.4375 C56.56676777 166.29969668 55.93503407 168.16067184 55.19921875 169.98046875 C51.56491857 179.43653888 52.07230276 188.24769934 55.84375 197.58203125 C57.30381982 200.63535294 59.02897477 203.25464343 61 206 C61 206.66 61 207.32 61 208 C61.66 208 62.32 208 63 208 C63 208.66 63 209.32 63 210 C63.66 210 64.32 210 65 210 C65 210.66 65 211.32 65 212 C65.78375 212.28875 66.5675 212.5775 67.375 212.875 C70 214 70 214 72 216 C72.56844526 220.85876784 72.62757225 225.72129959 72.70019531 230.61010742 C72.73315584 232.23309004 72.78753519 233.85579173 72.86425781 235.47729492 C73.49822824 248.95743569 73.49822824 248.95743569 69.82617188 253.96362305 C67.140625 256.328125 67.140625 256.328125 64.45410156 258.20410156 C59.07358818 262.14153256 56.79447936 268.77393684 55 275 C53.74160736 286.39869608 56.17613315 295.9571239 63.14453125 305.05078125 C64.85919299 306.99658445 64.85919299 306.99658445 66.68841553 308.12080383 C69.64409306 310.19361137 71.67852278 311.7768066 72.61845398 315.35316467 C72.80925368 318.21416892 72.78786319 321.00183057 72.68359375 323.8671875 C72.67654419 324.78508057 72.66949463 325.70297363 72.66223145 326.64868164 C72.62576952 330.05808247 72.52803796 333.46660648 72.4375 336.875 C72.293125 344.50625 72.14875 352.1375 72 360 C48.24 360 24.48 360 0 360 C0 241.2 0 122.4 0 0 Z " fill="#211C32" transform="translate(161,60)"/>
<path d="M0 0 C24.09 0 48.18 0 73 0 C73 118.8 73 237.6 73 360 C48.91 360 24.82 360 0 360 C-0.165 352.69875 -0.33 345.3975 -0.5 337.875 C-0.57283203 335.58030762 -0.64566406 333.28561523 -0.72070312 330.92138672 C-0.74408031 329.09085833 -0.7644632 327.26028819 -0.78125 325.4296875 C-0.82217773 324.48875244 -0.86310547 323.54781738 -0.90527344 322.57836914 C-0.91221487 316.02392174 -0.91221487 316.02392174 1.76391602 313.02008057 C6.95730889 309 6.95730889 309 10 309 C10 308.34 10 307.68 10 307 C10.66 307 11.32 307 12 307 C12.2475 306.29875 12.495 305.5975 12.75 304.875 C14 302 14 302 16 299.0625 C21.05619964 291.3201943 20.6967476 282.88353195 20 274 C18.07133898 265.62785783 13.22571305 258.16719318 6.3125 253.0625 C3.16957184 250.92708517 3.16957184 250.92708517 0 250 C-0.14849962 245.23125836 -0.25728023 240.46386585 -0.32958984 235.69335938 C-0.35973462 234.0713761 -0.40065941 232.44955548 -0.45263672 230.828125 C-0.52556613 228.49438389 -0.55947489 226.16279889 -0.5859375 223.828125 C-0.61690521 223.10506165 -0.64787292 222.38199829 -0.67977905 221.63702393 C-0.68115234 219.57519531 -0.68115234 219.57519531 0 216 C4.67869753 212 4.67869753 212 8 212 C8 211.34 8 210.68 8 210 C8.66 210 9.32 210 10 210 C10 209.34 10 208.68 10 208 C10.66 208 11.32 208 12 208 C12.28875 207.41863281 12.5775 206.83726562 12.875 206.23828125 C13.57064941 204.85422878 14.27691019 203.47538498 15 202.10546875 C19.49056904 193.49269767 20.40337361 185.64546002 21 176 C16.71 176 12.42 176 8 176 C10.80804268 173.03595495 13.18315774 170.55500981 17 169 C16.34 166.69 15.68 164.38 15 162 C14.34 162 13.68 162 13 162 C11.23814502 160.1291643 9.66091855 158.13966977 8.046875 156.140625 C6.03901706 153.7820144 6.03901706 153.7820144 2.7890625 152.5 C0 150 0 150 -0.48046875 147.43652344 C-0.59179711 144.18841545 -0.52188743 140.99658878 -0.375 137.75 C-0.33439453 136.06003906 -0.33439453 136.06003906 -0.29296875 134.3359375 C-0.22227604 131.55535763 -0.1236504 128.77864641 0 126 C6.625 122.125 6.625 122.125 10 121 C10 120.34 10 119.68 10 119 C10.66 119 11.32 119 12 119 C12.2475 118.484375 12.495 117.96875 12.75 117.4375 C14.06046635 114.88209061 15.51079126 112.43143002 17 109.9765625 C19.61693427 104.80402835 20.38866972 99.93288501 20.375 94.1875 C20.37338867 93.48189941 20.37177734 92.77629883 20.37011719 92.04931641 C20.16726806 83.40038652 16.71589701 77.90542062 12 71 C12 70.34 12 69.68 12 69 C11.34 69 10.68 69 10 69 C10 68.34 10 67.68 10 67 C9.34 67 8.68 67 8 67 C8 66.34 8 65.68 8 65 C6.576875 64.5359375 6.576875 64.5359375 5.125 64.0625 C2 63 2 63 0 62 C0 41.54 0 21.08 0 0 Z " fill="#211C31" transform="translate(266,60)"/>
<path d="M0 0 C6.25888135 5.70335934 10.46420082 13.59037626 11.11328125 22.0390625 C11.3610679 33.80240779 8.75627298 42.1218493 0.875 50.9375 C-3.425 54.9375 -3.425 54.9375 -7.125 54.9375 C-7.125 55.5975 -7.125 56.2575 -7.125 56.9375 C-15.05451961 60.59612958 -25.67358744 61.0157162 -34.125 58.9375 C-45.48455054 54.08313092 -51.53477195 47.31248745 -56.125 35.9375 C-58.70966156 25.48506365 -57.04729231 15.52954743 -51.5625 6.3125 C-50.30859375 4.3359375 -50.30859375 4.3359375 -49.125 2.9375 C-48.465 2.9375 -47.805 2.9375 -47.125 2.9375 C-47.125 2.2775 -47.125 1.6175 -47.125 0.9375 C-46.465 0.9375 -45.805 0.9375 -45.125 0.9375 C-45.125 0.2775 -45.125 -0.3825 -45.125 -1.0625 C-42.125 -3.0625 -42.125 -3.0625 -39.125 -3.0625 C-39.125 -3.7225 -39.125 -4.3825 -39.125 -5.0625 C-26.03796076 -11.0111542 -11.06853915 -8.79158252 0 0 Z " fill="#326375" transform="translate(274.125,128.0625)"/>
<path d="M0 0 C0 0.66 0 1.32 0 2 C0.66 2 1.32 2 2 2 C2 2.66 2 3.32 2 4 C2.99 4.33 3.98 4.66 5 5 C12.01936141 13.5398759 12.95513281 23.29057337 12 34 C10.36881323 40.75644973 6.87342359 47.01518387 2 52 C1.34 52 0.68 52 0 52 C0 52.66 0 53.32 0 54 C-9.98216403 60.81708763 -20.21118197 61.69667938 -32 60 C-35.8038563 58.83501385 -38.81180361 57.35793691 -42 55 C-43.11375 54.23623047 -43.11375 54.23623047 -44.25 53.45703125 C-44.8275 52.97621094 -45.405 52.49539063 -46 52 C-46 51.34 -46 50.68 -46 50 C-46.66 50 -47.32 50 -48 50 C-54.49685517 41.3846051 -57.03695983 32.69364828 -56 22 C-54.7301848 15.45251536 -52.35572924 9.14637316 -48 4 C-47.34 4 -46.68 4 -46 4 C-46 3.34 -46 2.68 -46 2 C-45.34 2 -44.68 2 -44 2 C-44 1.34 -44 0.68 -44 0 C-41 -2 -41 -2 -38 -2 C-38 -2.66 -38 -3.32 -38 -4 C-24.67133266 -9.88029442 -11.97271086 -7.26122742 0 0 Z " fill="#316274" transform="translate(273,315)"/>
<path d="M0 0 C1.671875 1.3125 1.671875 1.3125 3.921875 3.625 C3.921875 4.285 3.921875 4.945 3.921875 5.625 C4.581875 5.625 5.241875 5.625 5.921875 5.625 C7.671875 7.875 7.671875 7.875 8.921875 10.625 C8.109375 12.9375 8.109375 12.9375 6.921875 14.625 C5.931875 14.625 4.941875 14.625 3.921875 14.625 C3.921875 15.285 3.921875 15.945 3.921875 16.625 C1.281875 17.615 -1.358125 18.605 -4.078125 19.625 C-5.068125 18.635 -6.058125 17.645 -7.078125 16.625 C-7.078125 15.965 -7.078125 15.305 -7.078125 14.625 C-7.738125 14.625 -8.398125 14.625 -9.078125 14.625 C-9.078125 13.965 -9.078125 13.305 -9.078125 12.625 C-18.24259717 9.20359706 -23.91365283 9.20359706 -33.078125 12.625 C-33.078125 13.285 -33.078125 13.945 -33.078125 14.625 C-33.738125 14.625 -34.398125 14.625 -35.078125 14.625 C-35.3875 15.40875 -35.696875 16.1925 -36.015625 17 C-37.078125 19.625 -37.078125 19.625 -38.078125 21.625 C-39.00759591 30.57584714 -39.00759591 30.57584714 -35.953125 38.75 C-31.95655127 43.2727333 -27.15143596 45.13763112 -21.16015625 45.6875 C-14.25471108 45.48020709 -10.9139987 42.4608737 -6.078125 37.625 C-11.358125 37.295 -16.638125 36.965 -22.078125 36.625 C-22.078125 32.335 -22.078125 28.045 -22.078125 23.625 C-10.528125 23.625 1.021875 23.625 12.921875 23.625 C12.921875 34.46970082 11.3901375 40.76264353 5.921875 49.625 C5.261875 49.625 4.601875 49.625 3.921875 49.625 C3.921875 50.285 3.921875 50.945 3.921875 51.625 C3.261875 51.625 2.601875 51.625 1.921875 51.625 C1.921875 52.285 1.921875 52.945 1.921875 53.625 C1.261875 53.625 0.601875 53.625 -0.078125 53.625 C-0.078125 54.285 -0.078125 54.945 -0.078125 55.625 C-6.93586377 59.73964326 -12.6860151 62.01754135 -20.828125 62 C-21.87939575 61.9997583 -21.87939575 61.9997583 -22.9519043 61.99951172 C-30.2823225 61.83929321 -35.99842198 59.67813535 -42.078125 55.625 C-42.078125 54.965 -42.078125 54.305 -42.078125 53.625 C-43.398125 52.965 -44.718125 52.305 -46.078125 51.625 C-46.078125 50.965 -46.078125 50.305 -46.078125 49.625 C-46.738125 49.625 -47.398125 49.625 -48.078125 49.625 C-49.06565564 47.90059635 -50.04281306 46.17024974 -51.015625 44.4375 C-51.56089844 43.47457031 -52.10617188 42.51164062 -52.66796875 41.51953125 C-56.49313052 33.66788341 -56.19250417 24.0363039 -53.453125 15.875 C-49.73712293 6.87631902 -44.58309945 1.32396178 -36.078125 -3.375 C-35.46324219 -3.71660156 -34.84835938 -4.05820313 -34.21484375 -4.41015625 C-22.93901008 -9.60138589 -9.9524534 -6.58508195 0 0 Z " fill="#376677" transform="translate(271.078125,215.375)"/>
<path d="M0 0 C0.66 0 1.32 0 2 0 C1.61897675 2.36234412 1.16783136 4.58667064 0.265625 6.80859375 C-2.6604797 14.11005311 -2.27533856 21.2599272 -2 29 C-2.66 29 -3.32 29 -4 29 C-4 25.7 -4 22.4 -4 19 C-4.66 18.67 -5.32 18.34 -6 18 C-5.979375 16.948125 -5.95875 15.89625 -5.9375 14.8125 C-5.83680015 11.14714414 -5.83680015 11.14714414 -6.75 8.3125 C-7 6 -7 6 -5.25 3.6875 C-3 2 -3 2 0 2 C0 1.34 0 0.68 0 0 Z " fill="#312D3E" transform="translate(216,223)"/>
<path d="M0 0 C1.24523437 0.01804688 2.49046875 0.03609375 3.7734375 0.0546875 C5.18496094 0.08949219 5.18496094 0.08949219 6.625 0.125 C6.625 0.455 6.625 0.785 6.625 1.125 C5.76777344 1.16238281 4.91054687 1.19976562 4.02734375 1.23828125 C-6.463273 1.58095156 -6.463273 1.58095156 -15.125 6.87890625 C-16.6130674 8.58398348 -18.01991055 10.31325036 -19.375 12.125 C-21.025 11.795 -22.675 11.465 -24.375 11.125 C-24.375 11.785 -24.375 12.445 -24.375 13.125 C-25.035 13.125 -25.695 13.125 -26.375 13.125 C-26.375 13.785 -26.375 14.445 -26.375 15.125 C-27.035 14.795 -27.695 14.465 -28.375 14.125 C-21.63246223 4.68544712 -11.53804433 -0.21769895 0 0 Z " fill="#537883" transform="translate(250.375,208.875)"/>
<path d="M0 0 C1.125 3.75 1.125 3.75 0 6 C0.66 6 1.32 6 2 6 C2.433125 5.0409375 2.433125 5.0409375 2.875 4.0625 C4 2 4 2 6 1 C8 3 8 3 8 5.4375 C7 8 7 8 4.0625 9.3125 C0.9180454 10.63587346 0.9180454 10.63587346 0.16015625 12.9609375 C-0.31887991 14.95400765 -0.66838865 16.97717075 -1 19 C-1.33 19 -1.66 19 -2 19 C-2.19818283 12.29481414 -2.30844801 6.34823202 0 0 Z " fill="#4A7382" transform="translate(218,230)"/>
<path d="M0 0 C0.66 0.33 1.32 0.66 2 1 C0.33333333 2.66666667 -1.33333333 4.33333333 -3 6 C-3.70125 6.7425 -4.4025 7.485 -5.125 8.25 C-7 10 -7 10 -10 11 C-10.680625 11.680625 -11.36125 12.36125 -12.0625 13.0625 C-12.701875 13.701875 -13.34125 14.34125 -14 15 C-14.66 15 -15.32 15 -16 15 C-15 13 -14 11 -13 9 C-12.34 9 -11.68 9 -11 9 C-11 8.34 -11 7.68 -11 7 C-10.34 7 -9.68 7 -9 7 C-9 6.34 -9 5.68 -9 5 C-6 3 -6 3 -3 3 C-3 2.34 -3 1.68 -3 1 C-2.01 0.67 -1.02 0.34 0 0 Z " fill="#517381" transform="translate(238,310)"/>
<path d="M0 0 C0.66 0 1.32 0 2 0 C1.51781006 1.19616943 1.51781006 1.19616943 1.02587891 2.41650391 C-0.23050174 6.8051653 -0.3519183 10.79540178 -0.4140625 15.3359375 C-0.43342865 16.21528961 -0.4527948 17.09464172 -0.4727478 18.00064087 C-0.53222815 20.79199718 -0.5788021 23.58339543 -0.625 26.375 C-0.66320885 28.27475694 -0.70226226 30.1744971 -0.7421875 32.07421875 C-0.83790357 36.7160085 -0.9220504 41.35787929 -1 46 C-1.33 46 -1.66 46 -2 46 C-2.05059881 39.77038023 -2.08569062 33.5408132 -2.10986328 27.31103516 C-2.11993751 25.1905723 -2.13359733 23.07012339 -2.15087891 20.94970703 C-2.17506489 17.90654057 -2.18646869 14.86355734 -2.1953125 11.8203125 C-2.20563507 10.86818878 -2.21595764 9.91606506 -2.22659302 8.93508911 C-2.22674408 8.05432709 -2.22689514 7.17356506 -2.22705078 6.26611328 C-2.231492 5.48889923 -2.23593323 4.71168518 -2.24050903 3.91091919 C-2 2 -2 2 0 0 Z " fill="#504D58" transform="translate(268,373)"/>
<path d="M0 0 C0.99 0.99 1.98 1.98 3 3 C2.34 3.66 1.68 4.32 1 5 C0.75746187 7.21072977 0.75746187 7.21072977 0.875 9.625 C0.89304688 10.44226563 0.91109375 11.25953125 0.9296875 12.1015625 C0.95289063 12.72804688 0.97609375 13.35453125 1 14 C-0.98 14.99 -0.98 14.99 -3 16 C-3.1972739 4.71154909 -3.1972739 4.71154909 -2 1 C-1.34 0.67 -0.68 0.34 0 0 Z " fill="#4B6F7D" transform="translate(220,331)"/>
<path d="M0 0 C1.65 0 3.3 0 5 0 C4.67 0.99 4.34 1.98 4 3 C3.34 3 2.68 3 2 3 C2 3.66 2 4.32 2 5 C1.34 5 0.68 5 0 5 C-0.309375 5.78375 -0.61875 6.5675 -0.9375 7.375 C-2 10 -2 10 -3 12 C-3.22467831 13.53668865 -3.40796805 15.07968054 -3.5625 16.625 C-3.64628906 17.44226563 -3.73007813 18.25953125 -3.81640625 19.1015625 C-3.87699219 19.72804687 -3.93757812 20.35453125 -4 21 C-4.33 21 -4.66 21 -5 21 C-5.08160748 19.10489301 -5.13946459 17.20875496 -5.1875 15.3125 C-5.22230469 14.25675781 -5.25710937 13.20101562 -5.29296875 12.11328125 C-4.96409165 8.61841396 -4.12293836 6.77061447 -2 4 C-1.34 4 -0.68 4 0 4 C0 2.68 0 1.36 0 0 Z " fill="#6E8F9A" transform="translate(236,225)"/>
<path d="M0 0 C0.66 0.66 1.32 1.32 2 2 C1.01 2.495 1.01 2.495 0 3 C0 2.01 0 1.02 0 0 Z M0 4 C-0.57584432 6.38564077 -1.22227595 8.66682784 -2 11 C-3.65 11 -5.3 11 -7 11 C-6.67 8.69 -6.34 6.38 -6 4 C-2.25 2.875 -2.25 2.875 0 4 Z " fill="#2C6074" transform="translate(225,235)"/>
<path d="M0 0 C1.4783226 2.95664519 1.06032783 5.74229737 1 9 C-0.98 9.99 -0.98 9.99 -3 11 C-3 13.64 -3 16.28 -3 19 C-3.33 19 -3.66 19 -4 19 C-4.23496938 12.62971909 -3.99224297 7.08740907 -2 1 C-1.34 0.67 -0.68 0.34 0 0 Z " fill="#5A7D89" transform="translate(221,140)"/>
<path d="M0 0 C0.99 0.495 0.99 0.495 2 1 C1.01 1.495 1.01 1.495 0 2 C0 1.34 0 0.68 0 0 Z M0 2 C0 2.66 0 3.32 0 4 C2.31 4 4.62 4 7 4 C4.44609064 6.09785412 2.37080456 7.78252874 -1 8 C-2.75 6.6875 -2.75 6.6875 -4 5 C-4 4.34 -4 3.68 -4 3 C-4.66 2.67 -5.32 2.34 -6 2 C-3 1 -3 1 0 2 Z " fill="#5D838D" transform="translate(268,227)"/>
<path d="M0 0 C1.125 1.6875 1.125 1.6875 2 4 C1.125 6.75 1.125 6.75 0 9 C-1.33617352 8.02471263 -2.6688751 7.04466681 -4 6.0625 C-4.7425 5.51722656 -5.485 4.97195312 -6.25 4.41015625 C-6.8275 3.94480469 -7.405 3.47945312 -8 3 C-8 2.67 -8 2.34 -8 2 C-5.36 1.34 -2.72 0.68 0 0 Z " fill="#403D50" transform="translate(277,209)"/>
<path d="M0 0 C0.99 0 1.98 0 3 0 C3.33 5.94 3.66 11.88 4 18 C3.34 18 2.68 18 2 18 C2 14.7 2 11.4 2 8 C1.34 7.67 0.68 7.34 0 7 C0 4.69 0 2.38 0 0 Z " fill="#312F3C" transform="translate(210,234)"/>
<path d="M0 0 C0 0.33 0 0.66 0 1 C-1.25103516 1.03867188 -1.25103516 1.03867188 -2.52734375 1.078125 C-9.84327377 1.44685458 -15.57174875 2.4287493 -22 6 C-22.66 5.34 -23.32 4.68 -24 4 C-15.97331823 -0.1428035 -8.92981438 -0.46321804 0 0 Z " fill="#829EA7" transform="translate(257,209)"/>
<path d="M0 0 C0.99 0.33 1.98 0.66 3 1 C3 3.64 3 6.28 3 9 C0.69 9 -1.62 9 -4 9 C-2.68 7.68 -1.36 6.36 0 5 C-0.66 4.67 -1.32 4.34 -2 4 C-1.33333333 2.66666667 -0.66666667 1.33333333 0 0 Z " fill="#2B5E71" transform="translate(272,222)"/>
<path d="M0 0 C-1.4427317 3.36637397 -3.16467407 5.66502571 -6 8 C-7.32 8 -8.64 8 -10 8 C-10 7.34 -10 6.68 -10 6 C-9.34 6 -8.68 6 -8 6 C-8 5.34 -8 4.68 -8 4 C-7.34 4 -6.68 4 -6 4 C-6 3.34 -6 2.68 -6 2 C-3 0 -3 0 0 0 Z " fill="#5D7E87" transform="translate(235,125)"/>
<path d="M0 0 C0.98120464 3.05263664 0.98120464 4.94736336 0 8 C-1.32 8 -2.64 8 -4 8 C-4.33 7.01 -4.66 6.02 -5 5 C-4.34 5 -3.68 5 -3 5 C-2.87625 4.360625 -2.7525 3.72125 -2.625 3.0625 C-2.41875 2.381875 -2.2125 1.70125 -2 1 C-1.34 0.67 -0.68 0.34 0 0 Z " fill="#3B3645" transform="translate(217,325)"/>
<path d="M0 0 C-0.33 0.99 -0.66 1.98 -1 3 C1.31 3.33 3.62 3.66 6 4 C6 4.33 6 4.66 6 5 C1.71 5 -2.58 5 -7 5 C-2.25 0 -2.25 0 0 0 Z " fill="#5F5E66" transform="translate(281,231)"/>
<path d="M0 0 C1.65 0.33 3.3 0.66 5 1 C4.67 3.31 4.34 5.62 4 8 C3.34 7.01 2.68 6.02 2 5 C1.01 4.34 0.02 3.68 -1 3 C-0.67 2.01 -0.34 1.02 0 0 Z " fill="#464153" transform="translate(210,229)"/>
<path d="M0 0 C0.99 0.66 1.98 1.32 3 2 C3 2.66 3 3.32 3 4 C1.03852126 5.38938077 -0.96166576 6.7260411 -3 8 C-3.1875 5.125 -3.1875 5.125 -3 2 C-2.01 1.34 -1.02 0.68 0 0 Z " fill="#423D4F" transform="translate(229,308)"/>
<path d="M0 0 C0.33 0 0.66 0 1 0 C1.9765625 6.0546875 1.9765625 6.0546875 2 8 C-0.1385485 10.1385485 -1.13275314 10.42655063 -4 11 C-3.71125 10.29875 -3.4225 9.5975 -3.125 8.875 C-1.97866412 5.94547497 -0.97374346 2.99078347 0 0 Z " fill="#635F6C" transform="translate(285,252)"/>
<path d="M0 0 C2.54384726 1.27192363 2.69368156 2.19948469 3.6875 4.8125 C3.95949219 5.49957031 4.23148438 6.18664062 4.51171875 6.89453125 C5.06812731 9.29376496 4.77364938 10.6894364 4 13 C-0.59225513 4.738041 -0.59225513 4.738041 0 0 Z " fill="#6A8792" transform="translate(217,249)"/>
<path d="M0 0 C1.32 0.33 2.64 0.66 4 1 C4 1.66 4 2.32 4 3 C4.99 3 5.98 3 7 3 C7.33 4.65 7.66 6.3 8 8 C6.68 7.34 5.36 6.68 4 6 C4 5.34 4 4.68 4 4 C2.68 3.34 1.36 2.68 0 2 C0 1.34 0 0.68 0 0 Z " fill="#60808A" transform="translate(225,265)"/>
<path d="M0 0 C1.37562854 1.28965176 2.70766393 2.62689293 4 4 C4 4.66 4 5.32 4 6 C4.66 6 5.32 6 6 6 C5.67 6.66 5.34 7.32 5 8 C2.5625 7.1875 2.5625 7.1875 0 6 C-1 3 -1 3 0 0 Z " fill="#4B4753" transform="translate(218,262)"/>
<path d="M0 0 C2.97 0.495 2.97 0.495 6 1 C6.625 3.375 6.625 3.375 7 6 C6.34 6.66 5.68 7.32 5 8 C4.67 6.68 4.34 5.36 4 4 C3.34 4 2.68 4 2 4 C1.34 2.68 0.68 1.36 0 0 Z " fill="#565460" transform="translate(277,218)"/>
<path d="M0 0 C1.231394 2.46278801 1.07159196 4.2795055 1 7 C0.01 7.33 -0.98 7.66 -2 8 C-2.93423645 4.98968256 -3.04449911 4.13349732 -2 1 C-1.34 0.67 -0.68 0.34 0 0 Z " fill="#507280" transform="translate(221,140)"/>
<path d="M0 0 C0.99 1.32 1.98 2.64 3 4 C1.6875 5.5 1.6875 5.5 0 7 C-0.99 7 -1.98 7 -3 7 C-2.690625 6.401875 -2.38125 5.80375 -2.0625 5.1875 C-0.89790296 2.91043228 -0.89790296 2.91043228 0 0 Z " fill="#4F4D62" transform="translate(283,357)"/>
<path d="M0 0 C2.64 0 5.28 0 8 0 C7.01 1.485 7.01 1.485 6 3 C5.34 3 4.68 3 4 3 C3.67 3.66 3.34 4.32 3 5 C2.01 3.35 1.02 1.7 0 0 Z " fill="#4A4956" transform="translate(278,130)"/>
</svg>
